<svg version="1.1" xmlns="http://www.w3.org/2000/svg" xmlns:xlink="http://www.w3.org/1999/xlink" width="1162" height="902"><defs></defs><g><g transform="translate(10,10) scale(1,1)"><rect fill="#C0C0C0" stroke="none" x="7" y="7" width="50" height="44" opacity="0.2"></rect></g><g transform="translate(10,10) scale(1,1)"><rect fill="#ffffff" stroke="none" x="0" y="0" width="50" height="44"></rect></g><g transform="translate(10,10) scale(1,1)"><path fill="none" stroke="#000000" d="M 0 0 L 50 0 L 50 44 L 0 44 L 0 0 Z Z" stroke-miterlimit="10"></path></g><g transform="translate(10,10) scale(1,1)"><path fill="none" stroke="#000000" d="M 0 25 L 50 25" stroke-miterlimit="10"></path></g><g transform="translate(10,10) scale(1,1)"><path fill="none" stroke="#000000" d="M 0 35 L 50 35" stroke-miterlimit="10"></path></g><g transform="translate(10,10) scale(1,1)"><g><path fill="none" stroke="none"></path><text fill="#000000" stroke="none" font-family="Arial" font-size="13px" font-style="normal" font-weight="bold" text-decoration="none" x="5" y="19.5">Class1</text></g></g><g transform="translate(10,10) scale(1,1)"><rect fill="#C0C0C0" stroke="none" x="759" y="183" width="140" height="78" opacity="0.2"></rect></g><g transform="translate(10,10) scale(1,1)"><rect fill="#ffffff" stroke="none" x="752" y="176" width="140" height="78"></rect></g><g transform="translate(10,10) scale(1,1)"><path fill="none" stroke="#000000" d="M 752 176 L 892 176 L 892 254 L 752 254 L 752 176 Z Z" stroke-miterlimit="10"></path></g><g transform="translate(10,10) scale(1,1)"><path fill="none" stroke="#000000" d="M 752 203 L 892 203" stroke-miterlimit="10"></path></g><g transform="translate(10,10) scale(1,1)"><path fill="none" stroke="#000000" d="M 752 245 L 892 245" stroke-miterlimit="10"></path></g><g transform="translate(10,10) scale(1,1)"><g><path fill="none" stroke="none"></path><text fill="#000000" stroke="none" font-family="Arial" font-size="15px" font-style="normal" font-weight="bold" text-decoration="none" x="792.5" y="197.5">UserLink</text></g></g><g transform="translate(10,10) scale(1,1)"><g><path fill="none" stroke="none"></path><text fill="#000000" stroke="none" font-family="Arial" font-size="15px" font-style="normal" font-weight="normal" text-decoration="none" x="757" y="222.5">+id</text></g></g><g transform="translate(10,10) scale(1,1)"><g><path fill="none" stroke="none"></path><text fill="#000000" stroke="none" font-family="Arial" font-size="15px" font-style="normal" font-weight="normal" text-decoration="none" x="757" y="239.5">+confirmation_link</text></g></g><g transform="translate(10,10) scale(1,1)"><rect fill="#C0C0C0" stroke="none" x="775" y="371" width="120" height="180" opacity="0.2"></rect></g><g transform="translate(10,10) scale(1,1)"><rect fill="#ffffff" stroke="none" x="768" y="364" width="120" height="180"></rect></g><g transform="translate(10,10) scale(1,1)"><path fill="none" stroke="#000000" d="M 768 364 L 888 364 L 888 544 L 768 544 L 768 364 Z Z" stroke-miterlimit="10"></path></g><g transform="translate(10,10) scale(1,1)"><path fill="none" stroke="#000000" d="M 768 391 L 888 391" stroke-miterlimit="10"></path></g><g transform="translate(10,10) scale(1,1)"><path fill="none" stroke="#000000" d="M 768 535 L 888 535" stroke-miterlimit="10"></path></g><g transform="translate(10,10) scale(1,1)"><g><path fill="none" stroke="none"></path><text fill="#000000" stroke="none" font-family="Arial" font-size="15px" font-style="normal" font-weight="bold" text-decoration="none" x="808" y="385.5">Users</text></g></g><g transform="translate(10,10) scale(1,1)"><g><path fill="none" stroke="none"></path><text fill="#000000" stroke="none" font-family="Arial" font-size="15px" font-style="normal" font-weight="normal" text-decoration="none" x="773" y="410.5">+id</text></g></g><g transform="translate(10,10) scale(1,1)"><g><path fill="none" stroke="none"></path><text fill="#000000" stroke="none" font-family="Arial" font-size="15px" font-style="normal" font-weight="normal" text-decoration="none" x="773" y="427.5">+email</text></g></g><g transform="translate(10,10) scale(1,1)"><g><path fill="none" stroke="none"></path><text fill="#000000" stroke="none" font-family="Arial" font-size="15px" font-style="normal" font-weight="normal" text-decoration="none" x="773" y="444.5">+password</text></g></g><g transform="translate(10,10) scale(1,1)"><g><path fill="none" stroke="none"></path><text fill="#000000" stroke="none" font-family="Arial" font-size="15px" font-style="normal" font-weight="normal" text-decoration="none" x="773" y="461.5">+salt</text></g></g><g transform="translate(10,10) scale(1,1)"><g><path fill="none" stroke="none"></path><text fill="#000000" stroke="none" font-family="Arial" font-size="15px" font-style="normal" font-weight="normal" text-decoration="none" x="773" y="478.5">+profileUrl</text></g></g><g transform="translate(10,10) scale(1,1)"><g><path fill="none" stroke="none"></path><text fill="#000000" stroke="none" font-family="Arial" font-size="15px" font-style="normal" font-weight="normal" text-decoration="none" x="773" y="495.5">+confirmed</text></g></g><g transform="translate(10,10) scale(1,1)"><g><path fill="none" stroke="none"></path><text fill="#000000" stroke="none" font-family="Arial" font-size="15px" font-style="normal" font-weight="normal" text-decoration="none" x="773" y="512.5">+identity</text></g></g><g transform="translate(10,10) scale(1,1)"><g><path fill="none" stroke="none"></path><text fill="#000000" stroke="none" font-family="Arial" font-size="15px" font-style="normal" font-weight="normal" text-decoration="none" x="773" y="529.5">+role</text></g></g><g transform="translate(10,10) scale(1,1)"><rect fill="#C0C0C0" stroke="none" x="775" y="651" width="128" height="112" opacity="0.2"></rect></g><g transform="translate(10,10) scale(1,1)"><rect fill="#ffffff" stroke="none" x="768" y="644" width="128" height="112"></rect></g><g transform="translate(10,10) scale(1,1)"><path fill="none" stroke="#000000" d="M 768 644 L 896 644 L 896 756 L 768 756 L 768 644 Z Z" stroke-miterlimit="10"></path></g><g transform="translate(10,10) scale(1,1)"><path fill="none" stroke="#000000" d="M 768 671 L 896 671" stroke-miterlimit="10"></path></g><g transform="translate(10,10) scale(1,1)"><path fill="none" stroke="#000000" d="M 768 747 L 896 747" stroke-miterlimit="10"></path></g><g transform="translate(10,10) scale(1,1)"><g><path fill="none" stroke="none"></path><text fill="#000000" stroke="none" font-family="Arial" font-size="15px" font-style="normal" font-weight="bold" text-decoration="none" x="808" y="665.5">Rooms</text></g></g><g transform="translate(10,10) scale(1,1)"><g><path fill="none" stroke="none"></path><text fill="#000000" stroke="none" font-family="Arial" font-size="15px" font-style="normal" font-weight="normal" text-decoration="none" x="773" y="690.5">+id</text></g></g><g transform="translate(10,10) scale(1,1)"><g><path fill="none" stroke="none"></path><text fill="#000000" stroke="none" font-family="Arial" font-size="15px" font-style="normal" font-weight="normal" text-decoration="none" x="773" y="707.5">+ownerId</text></g></g><g transform="translate(10,10) scale(1,1)"><g><path fill="none" stroke="none"></path><text fill="#000000" stroke="none" font-family="Arial" font-size="15px" font-style="normal" font-weight="normal" text-decoration="none" x="773" y="724.5">+addressId</text></g></g><g transform="translate(10,10) scale(1,1)"><g><path fill="none" stroke="none"></path><text fill="#000000" stroke="none" font-family="Arial" font-size="15px" font-style="normal" font-weight="normal" text-decoration="none" x="773" y="741.5">+pictureUrl</text></g></g><g transform="translate(10,10) scale(1,1)"><path fill="none" stroke="#000000" d="M 831 643 L 829 545" stroke-miterlimit="10"></path></g><g transform="translate(10,10) scale(1,1)"><g><path fill="none" stroke="none"></path><text fill="#000000" stroke="none" font-family="Arial" font-size="13px" font-style="normal" font-weight="normal" text-decoration="none" x="833" y="628">1..*</text></g></g><g transform="translate(10,10) scale(1,1)"><g><path fill="none" stroke="none"></path><text fill="#000000" stroke="none" font-family="Arial" font-size="13px" font-style="normal" font-weight="normal" text-decoration="none" x="838" y="573">1</text></g></g><g transform="translate(10,10) scale(1,1)"><rect fill="#C0C0C0" stroke="none" x="1015" y="535" width="134" height="282" opacity="0.2"></rect></g><g transform="translate(10,10) scale(1,1)"><rect fill="#ffffff" stroke="none" x="1008" y="528" width="134" height="282"></rect></g><g transform="translate(10,10) scale(1,1)"><path fill="none" stroke="#000000" d="M 1008 528 L 1142 528 L 1142 810 L 1008 810 L 1008 528 Z Z" stroke-miterlimit="10"></path></g><g transform="translate(10,10) scale(1,1)"><path fill="none" stroke="#000000" d="M 1008 555 L 1142 555" stroke-miterlimit="10"></path></g><g transform="translate(10,10) scale(1,1)"><path fill="none" stroke="#000000" d="M 1008 801 L 1142 801" stroke-miterlimit="10"></path></g><g transform="translate(10,10) scale(1,1)"><g><path fill="none" stroke="none"></path><text fill="#000000" stroke="none" font-family="Arial" font-size="15px" font-style="normal" font-weight="bold" text-decoration="none" x="1018" y="549.5">RoomDescription</text></g></g><g transform="translate(10,10) scale(1,1)"><g><path fill="none" stroke="none"></path><text fill="#000000" stroke="none" font-family="Arial" font-size="15px" font-style="normal" font-weight="normal" text-decoration="none" x="1013" y="574.5">+roomSize</text></g></g><g transform="translate(10,10) scale(1,1)"><g><path fill="none" stroke="none"></path><text fill="#000000" stroke="none" font-family="Arial" font-size="15px" font-style="normal" font-weight="normal" text-decoration="none" x="1013" y="591.5">+maxPeople</text></g></g><g transform="translate(10,10) scale(1,1)"><g><path fill="none" stroke="none"></path><text fill="#000000" stroke="none" font-family="Arial" font-size="15px" font-style="normal" font-weight="normal" text-decoration="none" x="1013" y="608.5">+pricePerNight</text></g></g><g transform="translate(10,10) scale(1,1)"><g><path fill="none" stroke="none"></path><text fill="#000000" stroke="none" font-family="Arial" font-size="15px" font-style="normal" font-weight="normal" text-decoration="none" x="1013" y="625.5">+balcony</text></g></g><g transform="translate(10,10) scale(1,1)"><g><path fill="none" stroke="none"></path><text fill="#000000" stroke="none" font-family="Arial" font-size="15px" font-style="normal" font-weight="normal" text-decoration="none" x="1013" y="642.5">+kitchen</text></g></g><g transform="translate(10,10) scale(1,1)"><g><path fill="none" stroke="none"></path><text fill="#000000" stroke="none" font-family="Arial" font-size="15px" font-style="normal" font-weight="normal" text-decoration="none" x="1013" y="659.5">+seperateEntrance</text></g></g><g transform="translate(10,10) scale(1,1)"><g><path fill="none" stroke="none"></path><text fill="#000000" stroke="none" font-family="Arial" font-size="15px" font-style="normal" font-weight="normal" text-decoration="none" x="1013" y="676.5">+ensuiteBathroom</text></g></g><g transform="translate(10,10) scale(1,1)"><g><path fill="none" stroke="none"></path><text fill="#000000" stroke="none" font-family="Arial" font-size="15px" font-style="normal" font-weight="normal" text-decoration="none" x="1013" y="693.5">+wifi</text></g></g><g transform="translate(10,10) scale(1,1)"><g><path fill="none" stroke="none"></path><text fill="#000000" stroke="none" font-family="Arial" font-size="15px" font-style="normal" font-weight="normal" text-decoration="none" x="1013" y="710.5">+pictures_url</text></g></g><g transform="translate(10,10) scale(1,1)"><g><path fill="none" stroke="none"></path><text fill="#000000" stroke="none" font-family="Arial" font-size="15px" font-style="normal" font-weight="normal" text-decoration="none" x="1013" y="727.5">+floorHeating</text></g></g><g transform="translate(10,10) scale(1,1)"><g><path fill="none" stroke="none"></path><text fill="#000000" stroke="none" font-family="Arial" font-size="15px" font-style="normal" font-weight="normal" text-decoration="none" x="1013" y="744.5">+airconditioning</text></g></g><g transform="translate(10,10) scale(1,1)"><g><path fill="none" stroke="none"></path><text fill="#000000" stroke="none" font-family="Arial" font-size="15px" font-style="normal" font-weight="normal" text-decoration="none" x="1013" y="761.5">+arrivalTime</text></g></g><g transform="translate(10,10) scale(1,1)"><g><path fill="none" stroke="none"></path><text fill="#000000" stroke="none" font-family="Arial" font-size="15px" font-style="normal" font-weight="normal" text-decoration="none" x="1013" y="778.5">+departureTime</text></g></g><g transform="translate(10,10) scale(1,1)"><g><path fill="none" stroke="none"></path><text fill="#000000" stroke="none" font-family="Arial" font-size="15px" font-style="normal" font-weight="normal" text-decoration="none" x="1013" y="795.5">+extraDescription</text></g></g><g transform="translate(10,10) scale(1,1)"><rect fill="#C0C0C0" stroke="none" x="483" y="383" width="188" height="146" opacity="0.2"></rect></g><g transform="translate(10,10) scale(1,1)"><rect fill="#ffffff" stroke="none" x="476" y="376" width="188" height="146"></rect></g><g transform="translate(10,10) scale(1,1)"><path fill="none" stroke="#000000" d="M 476 376 L 664 376 L 664 522 L 476 522 L 476 376 Z Z" stroke-miterlimit="10"></path></g><g transform="translate(10,10) scale(1,1)"><path fill="none" stroke="#000000" d="M 476 403 L 664 403" stroke-miterlimit="10"></path></g><g transform="translate(10,10) scale(1,1)"><path fill="none" stroke="#000000" d="M 476 513 L 664 513" stroke-miterlimit="10"></path></g><g transform="translate(10,10) scale(1,1)"><g><path fill="none" stroke="none"></path><text fill="#000000" stroke="none" font-family="Arial" font-size="15px" font-style="normal" font-weight="bold" text-decoration="none" x="523.5" y="397.5">UserBookings</text></g></g><g transform="translate(10,10) scale(1,1)"><g><path fill="none" stroke="none"></path><text fill="#000000" stroke="none" font-family="Arial" font-size="15px" font-style="normal" font-weight="normal" text-decoration="none" x="481" y="422.5">+id</text></g></g><g transform="translate(10,10) scale(1,1)"><g><path fill="none" stroke="none"></path><text fill="#000000" stroke="none" font-family="Arial" font-size="15px" font-style="normal" font-weight="normal" text-decoration="none" x="481" y="439.5">+arrivalDate</text></g></g><g transform="translate(10,10) scale(1,1)"><g><path fill="none" stroke="none"></path><text fill="#000000" stroke="none" font-family="Arial" font-size="15px" font-style="normal" font-weight="normal" text-decoration="none" x="481" y="456.5">+departureDate</text></g></g><g transform="translate(10,10) scale(1,1)"><g><path fill="none" stroke="none"></path><text fill="#000000" stroke="none" font-family="Arial" font-size="15px" font-style="normal" font-weight="normal" text-decoration="none" x="481" y="473.5">+confirmed</text></g></g><g transform="translate(10,10) scale(1,1)"><g><path fill="none" stroke="none"></path><text fill="#000000" stroke="none" font-family="Arial" font-size="15px" font-style="normal" font-weight="normal" text-decoration="none" x="481" y="490.5">+roomId</text></g></g><g transform="translate(10,10) scale(1,1)"><g><path fill="none" stroke="none"></path><text fill="#000000" stroke="none" font-family="Arial" font-size="15px" font-style="normal" font-weight="normal" text-decoration="none" x="481" y="507.5">+userId</text></g></g><g transform="translate(10,10) scale(1,1)"><path fill="none" stroke="#000000" d="M 897 692 L 1007 678" stroke-miterlimit="10"></path></g><g transform="translate(10,10) scale(1,1)"><g><path fill="none" stroke="none"></path><text fill="#000000" stroke="none" font-family="Arial" font-size="13px" font-style="normal" font-weight="normal" text-decoration="none" x="917" y="708">1</text></g></g><g transform="translate(10,10) scale(1,1)"><g><path fill="none" stroke="none"></path><text fill="#000000" stroke="none" font-family="Arial" font-size="13px" font-style="normal" font-weight="normal" text-decoration="none" x="984" y="700">1</text></g></g><g transform="translate(10,10) scale(1,1)"><rect fill="#C0C0C0" stroke="none" x="1011" y="367" width="116" height="146" opacity="0.2"></rect></g><g transform="translate(10,10) scale(1,1)"><rect fill="#ffffff" stroke="none" x="1004" y="360" width="116" height="146"></rect></g><g transform="translate(10,10) scale(1,1)"><path fill="none" stroke="#000000" d="M 1004 360 L 1120 360 L 1120 506 L 1004 506 L 1004 360 Z Z" stroke-miterlimit="10"></path></g><g transform="translate(10,10) scale(1,1)"><path fill="none" stroke="#000000" d="M 1004 387 L 1120 387" stroke-miterlimit="10"></path></g><g transform="translate(10,10) scale(1,1)"><path fill="none" stroke="#000000" d="M 1004 497 L 1120 497" stroke-miterlimit="10"></path></g><g transform="translate(10,10) scale(1,1)"><g><path fill="none" stroke="none"></path><text fill="#000000" stroke="none" font-family="Arial" font-size="15px" font-style="normal" font-weight="bold" text-decoration="none" x="1021" y="381.5">RoomRating</text></g></g><g transform="translate(10,10) scale(1,1)"><g><path fill="none" stroke="none"></path><text fill="#000000" stroke="none" font-family="Arial" font-size="15px" font-style="normal" font-weight="normal" text-decoration="none" x="1009" y="406.5">+id</text></g></g><g transform="translate(10,10) scale(1,1)"><g><path fill="none" stroke="none"></path><text fill="#000000" stroke="none" font-family="Arial" font-size="15px" font-style="normal" font-weight="normal" text-decoration="none" x="1009" y="423.5">+roomId</text></g></g><g transform="translate(10,10) scale(1,1)"><g><path fill="none" stroke="none"></path><text fill="#000000" stroke="none" font-family="Arial" font-size="15px" font-style="normal" font-weight="normal" text-decoration="none" x="1009" y="440.5">+Attribute2</text></g></g><g transform="translate(10,10) scale(1,1)"><g><path fill="none" stroke="none"></path><text fill="#000000" stroke="none" font-family="Arial" font-size="15px" font-style="normal" font-weight="normal" text-decoration="none" x="1009" y="457.5">+Attribute3</text></g></g><g transform="translate(10,10) scale(1,1)"><g><path fill="none" stroke="none"></path><text fill="#000000" stroke="none" font-family="Arial" font-size="15px" font-style="normal" font-weight="normal" text-decoration="none" x="1009" y="474.5">+Attribute4</text></g></g><g transform="translate(10,10) scale(1,1)"><g><path fill="none" stroke="none"></path><text fill="#000000" stroke="none" font-family="Arial" font-size="15px" font-style="normal" font-weight="normal" text-decoration="none" x="1009" y="491.5">+Attribute5</text></g></g><g transform="translate(10,10) scale(1,1)"><rect fill="#C0C0C0" stroke="none" x="495" y="179" width="172" height="129" opacity="0.2"></rect></g><g transform="translate(10,10) scale(1,1)"><rect fill="#ffffff" stroke="none" x="488" y="172" width="172" height="129"></rect></g><g transform="translate(10,10) scale(1,1)"><path fill="none" stroke="#000000" d="M 488 172 L 660 172 L 660 301 L 488 301 L 488 172 Z Z" stroke-miterlimit="10"></path></g><g transform="translate(10,10) scale(1,1)"><path fill="none" stroke="#000000" d="M 488 199 L 660 199" stroke-miterlimit="10"></path></g><g transform="translate(10,10) scale(1,1)"><path fill="none" stroke="#000000" d="M 488 292 L 660 292" stroke-miterlimit="10"></path></g><g transform="translate(10,10) scale(1,1)"><g><path fill="none" stroke="none"></path><text fill="#000000" stroke="none" font-family="Arial" font-size="15px" font-style="normal" font-weight="bold" text-decoration="none" x="534" y="193.5">BookingLink</text></g></g><g transform="translate(10,10) scale(1,1)"><g><path fill="none" stroke="none"></path><text fill="#000000" stroke="none" font-family="Arial" font-size="15px" font-style="normal" font-weight="normal" text-decoration="none" x="493" y="218.5">+Id</text></g></g><g transform="translate(10,10) scale(1,1)"><g><path fill="none" stroke="none"></path><text fill="#000000" stroke="none" font-family="Arial" font-size="15px" font-style="normal" font-weight="normal" text-decoration="none" x="493" y="235.5">+bookingId</text></g></g><g transform="translate(10,10) scale(1,1)"><g><path fill="none" stroke="none"></path><text fill="#000000" stroke="none" font-family="Arial" font-size="15px" font-style="normal" font-weight="normal" text-decoration="none" x="493" y="252.5">+confirmationUrl</text></g></g><g transform="translate(10,10) scale(1,1)"><g><path fill="none" stroke="none"></path><text fill="#000000" stroke="none" font-family="Arial" font-size="15px" font-style="normal" font-weight="normal" text-decoration="none" x="493" y="269.5">+timeOfBooking</text></g></g><g transform="translate(10,10) scale(1,1)"><g><path fill="none" stroke="none"></path><text fill="#000000" stroke="none" font-family="Arial" font-size="15px" font-style="normal" font-weight="normal" text-decoration="none" x="493" y="286.5">+confirmationDeadLine</text></g></g><g transform="translate(10,10) scale(1,1)"><path fill="none" stroke="#000000" d="M 823 255 L 826 363" stroke-miterlimit="10"></path></g><g transform="translate(10,10) scale(1,1)"><g><path fill="none" stroke="none"></path><text fill="#000000" stroke="none" font-family="Arial" font-size="13px" font-style="normal" font-weight="normal" text-decoration="none" x="808" y="283">1</text></g></g><g transform="translate(10,10) scale(1,1)"><g><path fill="none" stroke="none"></path><text fill="#000000" stroke="none" font-family="Arial" font-size="13px" font-style="normal" font-weight="normal" text-decoration="none" x="809" y="348">1</text></g></g><g transform="translate(10,10) scale(1,1)"><path fill="none" stroke="#000000" d="M 571 375 L 573 302" stroke-miterlimit="10"></path></g><g transform="translate(10,10) scale(1,1)"><g><path fill="none" stroke="none"></path><text fill="#000000" stroke="none" font-family="Arial" font-size="13px" font-style="normal" font-weight="normal" text-decoration="none" x="581" y="360">1</text></g></g><g transform="translate(10,10) scale(1,1)"><g><path fill="none" stroke="none"></path><text fill="#000000" stroke="none" font-family="Arial" font-size="13px" font-style="normal" font-weight="normal" text-decoration="none" x="581" y="330">1</text></g></g><g transform="translate(10,10) scale(1,1)"><path fill="none" stroke="#000000" d="M 665 451 L 767 453" stroke-miterlimit="10"></path></g><g transform="translate(10,10) scale(1,1)"><g><path fill="none" stroke="none"></path><text fill="#000000" stroke="none" font-family="Arial" font-size="13px" font-style="normal" font-weight="normal" text-decoration="none" x="676" y="470">0..*</text></g></g><g transform="translate(10,10) scale(1,1)"><g><path fill="none" stroke="none"></path><text fill="#000000" stroke="none" font-family="Arial" font-size="13px" font-style="normal" font-weight="normal" text-decoration="none" x="742" y="472">1</text></g></g><g transform="translate(10,10) scale(1,1)"><path fill="none" stroke="#000000" d="M 647 523 L 773 643" stroke-miterlimit="10"></path></g><g transform="translate(10,10) scale(1,1)"><rect fill="#C0C0C0" stroke="none" x="475" y="603" width="73" height="146" opacity="0.2"></rect></g><g transform="translate(10,10) scale(1,1)"><rect fill="#ffffff" stroke="none" x="468" y="596" width="73" height="146"></rect></g><g transform="translate(10,10) scale(1,1)"><path fill="none" stroke="#000000" d="M 468 596 L 541 596 L 541 742 L 468 742 L 468 596 Z Z" stroke-miterlimit="10"></path></g><g transform="translate(10,10) scale(1,1)"><path fill="none" stroke="#000000" d="M 468 623 L 541 623" stroke-miterlimit="10"></path></g><g transform="translate(10,10) scale(1,1)"><path fill="none" stroke="#000000" d="M 468 733 L 541 733" stroke-miterlimit="10"></path></g><g transform="translate(10,10) scale(1,1)"><g><path fill="none" stroke="none"></path><text fill="#000000" stroke="none" font-family="Arial" font-size="15px" font-style="normal" font-weight="bold" text-decoration="none" x="477" y="617.5">Address</text></g></g><g transform="translate(10,10) scale(1,1)"><g><path fill="none" stroke="none"></path><text fill="#000000" stroke="none" font-family="Arial" font-size="15px" font-style="normal" font-weight="normal" text-decoration="none" x="473" y="642.5">+id</text></g></g><g transform="translate(10,10) scale(1,1)"><g><path fill="none" stroke="none"></path><text fill="#000000" stroke="none" font-family="Arial" font-size="15px" font-style="normal" font-weight="normal" text-decoration="none" x="473" y="659.5">+country</text></g></g><g transform="translate(10,10) scale(1,1)"><g><path fill="none" stroke="none"></path><text fill="#000000" stroke="none" font-family="Arial" font-size="15px" font-style="normal" font-weight="normal" text-decoration="none" x="473" y="676.5">+region</text></g></g><g transform="translate(10,10) scale(1,1)"><g><path fill="none" stroke="none"></path><text fill="#000000" stroke="none" font-family="Arial" font-size="15px" font-style="normal" font-weight="normal" text-decoration="none" x="473" y="693.5">+town</text></g></g><g transform="translate(10,10) scale(1,1)"><g><path fill="none" stroke="none"></path><text fill="#000000" stroke="none" font-family="Arial" font-size="15px" font-style="normal" font-weight="normal" text-decoration="none" x="473" y="710.5">+street</text></g></g><g transform="translate(10,10) scale(1,1)"><g><path fill="none" stroke="none"></path><text fill="#000000" stroke="none" font-family="Arial" font-size="15px" font-style="normal" font-weight="normal" text-decoration="none" x="473" y="727.5">+number</text></g></g><g transform="translate(10,10) scale(1,1)"><path fill="none" stroke="#000000" d="M 542 673 L 767 694" stroke-miterlimit="10"></path></g><g transform="translate(10,10) scale(1,1)"><g><path fill="none" stroke="none"></path><text fill="#000000" stroke="none" font-family="Arial" font-size="13px" font-style="normal" font-weight="normal" text-decoration="none" x="559" y="694">1</text></g></g><g transform="translate(10,10) scale(1,1)"><g><path fill="none" stroke="none"></path><text fill="#000000" stroke="none" font-family="Arial" font-size="13px" font-style="normal" font-weight="normal" text-decoration="none" x="741" y="711">1</text></g></g><g transform="translate(10,10) scale(1,1)"><rect fill="#C0C0C0" stroke="none" x="995" y="191" width="88" height="146" opacity="0.2"></rect></g><g transform="translate(10,10) scale(1,1)"><rect fill="#ffffff" stroke="none" x="988" y="184" width="88" height="146"></rect></g><g transform="translate(10,10) scale(1,1)"><path fill="none" stroke="#000000" d="M 988 184 L 1076 184 L 1076 330 L 988 330 L 988 184 Z Z" stroke-miterlimit="10"></path></g><g transform="translate(10,10) scale(1,1)"><path fill="none" stroke="#000000" d="M 988 211 L 1076 211" stroke-miterlimit="10"></path></g><g transform="translate(10,10) scale(1,1)"><path fill="none" stroke="#000000" d="M 988 321 L 1076 321" stroke-miterlimit="10"></path></g><g transform="translate(10,10) scale(1,1)"><g><path fill="none" stroke="none"></path><text fill="#000000" stroke="none" font-family="Arial" font-size="15px" font-style="normal" font-weight="bold" text-decoration="none" x="995" y="205.5">UserRating</text></g></g><g transform="translate(10,10) scale(1,1)"><g><path fill="none" stroke="none"></path><text fill="#000000" stroke="none" font-family="Arial" font-size="15px" font-style="normal" font-weight="normal" text-decoration="none" x="993" y="230.5">+id</text></g></g><g transform="translate(10,10) scale(1,1)"><g><path fill="none" stroke="none"></path><text fill="#000000" stroke="none" font-family="Arial" font-size="15px" font-style="normal" font-weight="normal" text-decoration="none" x="993" y="247.5">+userId</text></g></g><g transform="translate(10,10) scale(1,1)"><g><path fill="none" stroke="none"></path><text fill="#000000" stroke="none" font-family="Arial" font-size="15px" font-style="normal" font-weight="normal" text-decoration="none" x="993" y="264.5">+Attribute1</text></g></g><g transform="translate(10,10) scale(1,1)"><g><path fill="none" stroke="none"></path><text fill="#000000" stroke="none" font-family="Arial" font-size="15px" font-style="normal" font-weight="normal" text-decoration="none" x="993" y="281.5">+Attribute2</text></g></g><g transform="translate(10,10) scale(1,1)"><g><path fill="none" stroke="none"></path><text fill="#000000" stroke="none" font-family="Arial" font-size="15px" font-style="normal" font-weight="normal" text-decoration="none" x="993" y="298.5">+Attribute3</text></g></g><g transform="translate(10,10) scale(1,1)"><g><path fill="none" stroke="none"></path><text fill="#000000" stroke="none" font-family="Arial" font-size="15px" font-style="normal" font-weight="normal" text-decoration="none" x="993" y="315.5">+Attribute4</text></g></g><g transform="translate(10,10) scale(1,1)"><path fill="none" stroke="#000000" d="M 889 395 L 987 300" stroke-miterlimit="10"></path></g><g transform="translate(10,10) scale(1,1)"><g><path fill="none" stroke="none"></path><text fill="#000000" stroke="none" font-family="Arial" font-size="13px" font-style="normal" font-weight="normal" text-decoration="none" x="903" y="395">0..*</text></g></g><g transform="translate(10,10) scale(1,1)"><g><path fill="none" stroke="none"></path><text fill="#000000" stroke="none" font-family="Arial" font-size="13px" font-style="normal" font-weight="normal" text-decoration="none" x="977" y="331">1</text></g></g><g transform="translate(10,10) scale(1,1)"><path fill="none" stroke="#000000" d="M 881 643 L 1003 501" stroke-miterlimit="10"></path></g><g transform="translate(10,10) scale(1,1)"><g><path fill="none" stroke="none"></path><text fill="#000000" stroke="none" font-family="Arial" font-size="13px" font-style="normal" font-weight="normal" text-decoration="none" x="894" y="641">0..*</text></g></g><g transform="translate(10,10) scale(1,1)"><g><path fill="none" stroke="none"></path><text fill="#000000" stroke="none" font-family="Arial" font-size="13px" font-style="normal" font-weight="normal" text-decoration="none" x="995" y="532">1</text></g></g><g transform="translate(10,10) scale(1,1)"><rect fill="#C0C0C0" stroke="none" x="603" y="787" width="80" height="102" opacity="0.2"></rect></g><g transform="translate(10,10) scale(1,1)"><rect fill="#ffffff" stroke="none" x="596" y="780" width="80" height="102"></rect></g><g transform="translate(10,10) scale(1,1)"><path fill="none" stroke="#000000" d="M 596 780 L 676 780 L 676 882 L 596 882 L 596 780 Z Z" stroke-miterlimit="10"></path></g><g transform="translate(10,10) scale(1,1)"><path fill="none" stroke="#000000" d="M 596 805 L 676 805" stroke-miterlimit="10"></path></g><g transform="translate(10,10) scale(1,1)"><path fill="none" stroke="#000000" d="M 596 873 L 676 873" stroke-miterlimit="10"></path></g><g transform="translate(10,10) scale(1,1)"><g><path fill="none" stroke="none"></path><text fill="#000000" stroke="none" font-family="Arial" font-size="13px" font-style="normal" font-weight="bold" text-decoration="none" x="602.5" y="799.5">UserDetails</text></g></g><g transform="translate(10,10) scale(1,1)"><g><path fill="none" stroke="none"></path><text fill="#000000" stroke="none" font-family="Arial" font-size="13px" font-style="normal" font-weight="normal" text-decoration="none" x="601" y="822.5">+name</text></g></g><g transform="translate(10,10) scale(1,1)"><g><path fill="none" stroke="none"></path><text fill="#000000" stroke="none" font-family="Arial" font-size="13px" font-style="normal" font-weight="normal" text-decoration="none" x="601" y="837.5">+surname</text></g></g><g transform="translate(10,10) scale(1,1)"><g><path fill="none" stroke="none"></path><text fill="#000000" stroke="none" font-family="Arial" font-size="13px" font-style="normal" font-weight="normal" text-decoration="none" x="601" y="852.5">+address_id</text></g></g><g transform="translate(10,10) scale(1,1)"><g><path fill="none" stroke="none"></path><text fill="#000000" stroke="none" font-family="Arial" font-size="13px" font-style="normal" font-weight="normal" text-decoration="none" x="601" y="867.5">+document</text></g></g><g transform="translate(10,10) scale(1,1)"><path fill="none" stroke="#000000" d="M 662 779 L 782 545" stroke-miterlimit="10"></path></g><g transform="translate(10,10) scale(1,1)"><g><path fill="none" stroke="none"></path><text fill="#000000" stroke="none" font-family="Arial" font-size="13px" font-style="normal" font-weight="normal" text-decoration="none" x="680" y="772">1</text></g></g><g transform="translate(10,10) scale(1,1)"><g><path fill="none" stroke="none"></path><text fill="#000000" stroke="none" font-family="Arial" font-size="13px" font-style="normal" font-weight="normal" text-decoration="none" x="780" y="576">1</text></g></g><g transform="translate(10,10) scale(1,1)"><path fill="none" stroke="#000000" d="M 542 716 L 595 781" stroke-miterlimit="10"></path></g><g transform="translate(10,10) scale(1,1)"><g><path fill="none" stroke="none"></path><text fill="#000000" stroke="none" font-family="Arial" font-size="13px" font-style="normal" font-weight="normal" text-decoration="none" x="542" y="747">1</text></g></g><g transform="translate(10,10) scale(1,1)"><g><path fill="none" stroke="none"></path><text fill="#000000" stroke="none" font-family="Arial" font-size="13px" font-style="normal" font-weight="normal" text-decoration="none" x="568" y="779">1</text></g></g></g></svg>